# xmcd
#
# Track frame offsets: 
#        150
#        14174
#        29546
#        49699
#        65511
#        84977
#        101790
#
# Disc length: 1618 seconds
#
# Revision: 0
# Processed by: cddbd v1.5.2PL0 Copyright (c) Steve Scherf et al.
# Submitted via: ExactAudioCopyFreeDBPlugin 1.0
#
DISCID=5a065007
DTITLE=Meiko Kaji - Aitsu No Suki Na Blues
DYEAR=2011
DGENRE=Pop
TTITLE0=Ayamachi
TTITLE1=Ichiban Boshi Blues
TTITLE2=Aitsu No Sukisona Blues
TTITLE3=Fukurokouji Sanban Chou
TTITLE4=Asagao. Yuugao
TTITLE5=Aa Blues
TTITLE6=Shinayaka Ni Shitataka Ni
EXTD=
EXTT0=
EXTT1=
EXTT2=
EXTT3=
EXTT4=
EXTT5=
EXTT6=
PLAYORDER=
